<svg version="1.1" xmlns="http://www.w3.org/2000/svg" xmlns:xlink="http://www.w3.org/1999/xlink" width="493.21492" height="366.65121" viewBox="0,0,493.21492,366.65121"><g transform="translate(2.48355,3)"><g data-paper-data="{&quot;isPaintingLayer&quot;:true}" fill="#dc0000" fill-rule="nonzero" stroke="none" stroke-width="0" stroke-linecap="butt" stroke-linejoin="miter" stroke-miterlimit="10" stroke-dasharray="" stroke-dashoffset="0" style="mix-blend-mode: normal"><path d="M-2.48355,57.1596v-9h48v9z"/><path d="M-0.99999,51.93426v-54.93426h12v54.93426z"/><path d="M10.00001,9v-10h78v10z"/><path d="M76.99097,157.36784v-157.36784h14v157.36784z"/><path d="M-1.67111,109.60043v-11h46.89788v11z"/><path d="M-0.99999,363.46232c0,0 0,-107.61655 0,-153.92577c0,-17.75736 0,-41.58876 0,-61.97004c0,-23.33248 0,-42.14339 0,-42.14339h9.77465c0,0 0,44.57058 0,74.65226c0,47.60359 0,183.38693 0,183.38693z"/><path d="M2.00001,293.4837v-1h7v1z"/><path d="M1.00001,243.4837v-1h1v1z"/><path d="M36.73126,227.59991v-128.60958h10.43311v128.60958z"/><path d="M-0.40486,363.65121v-11.62222h478v11.62222z"/><path d="M7.93206,309.97531v-10.15177h40.6071v10.15177z"/><path d="M39.92552,309.8215v-38.14607h9.47494v38.14607z"/><path d="M40.1333,282.95787v-11.07466h81.98081v11.07466z"/><path d="M76.95565,357.58139v-32.1565h8.52356v32.1565z"/><path d="M114.03928,307.84085v-83.75259h11.25019v83.75259z"/><path d="M39.50001,227.80254v-12h43v12z"/><path d="M116.08245,233.80254v-10h45.66089v10z"/><path d="M153.68383,233.90574v-58.06369h12v58.06369z"/><path d="M125.20359,186.32384v-11h39.68416v11z"/><path d="M272.75631,59.34269v-9.49423h46.39074v9.49423z"/><path d="M82.56511,136.13703v-9.15537h42.64464v9.15537z"/><path d="M161.61211,131.61906v-60.61042h11.30456v60.61042z"/><path d="M79.14669,10.31608v-9.97529h411.58467v9.97529z"/><path d="M135.64646,78.83191v-7.49313h27.35388v7.49313z"/><path d="M162.68535,27.6898v-19.18231h10.41326v19.18231z"/><path d="M308.12916,50.49789v-48.94818h11.12174v48.94818z"/><path d="M266.0595,234.07937v-183.85197h14.99106v183.85197z"/><path d="M221.22101,233.97862v-11.95742h55.14319v11.95742z"/><path d="M210.16706,234.22882v-58.96196h12.58675v58.96196z"/><path d="M171.28778,118.71215v-11.47718h100.06929v11.47718z"/><path d="M161.80292,314.66245v-44.18545h11.73804v44.18545z"/><path d="M162.27378,315.14248v-9.93218h43.16852v9.93218z"/><path d="M197.78466,353.01644v-47.73006h10.83511v47.73006z"/><path d="M163.33441,280.19648v-9.93219h102.03062v9.93219z"/><path d="M260.98947,309.81328v-39.50127h10.83511v39.50127z"/><path d="M260.98946,314.6445v-7.06503h116.47743v7.06503z"/><path d="M466.62891,50.76796v-45.34743h13.11503v45.34743z"/><path d="M376.01598,51.27308v-11.92275h98.95885v11.92275z"/><path d="M362.09116,109.95334v-13.11503h120.92888v13.11503z"/><path d="M352.01648,142.24935v-45.30646h11.92275v45.30646z"/><path d="M405.42554,202.15111v-49.94163h13.31257v49.94163z"/><path d="M370.0588,192.16806v-10.62069h37.4572v10.62069z"/><path d="M370.00227,263.32957v-79.18922h12.91631v79.18922z"/><path d="M369.61478,271.1928v-11.14312h61.67881v11.14312z"/><path d="M424.42337,271.18979v-29.16741h11.92275v29.16741z"/><path d="M467.71821,360.71858v-251.5701h13.56213v251.5701z"/><path d="M424.53498,250.584v-12.23048h46.65281v12.23048z"/><path d="M206.31789,70.81351v-10.15589h74.51186v10.15589z"/><path d="M273.30656,206.50732v-11.45419h51.98439v11.45419z"/></g></g></svg>